<svg xmlns="http://www.w3.org/2000/svg" width="29" height="30" viewBox="0 0 29 30">
  <g id="Group_183747" data-name="Group 183747" transform="translate(-0.218)">
    <rect id="Rectangle_1633" data-name="Rectangle 1633" width="29" height="30" transform="translate(0.218)" fill="rgba(255,255,255,0)"/>
    <g id="Group_14200" data-name="Group 14200" transform="translate(2.863 2.696)">
      <path id="path322" d="M228.664-159.6v16.684a.884.884,0,0,1-.873.873H213.363a.879.879,0,0,1-.873-.873v-21.5a.875.875,0,0,1,.873-.873h9.613" transform="translate(-212.49 165.29)" fill="none" stroke="#464646" stroke-linecap="round" stroke-linejoin="round" stroke-width="1.2"/>
      <path id="path324" d="M237.018-159.6H232.2a.875.875,0,0,1-.873-.872v-4.815Z" transform="translate(-220.845 165.29)" fill="none" stroke="#464646" stroke-linecap="round" stroke-linejoin="round" stroke-width="1.2"/>
      <path id="path326" d="M247.107-160.049h3.116v16.169c0,3.224-3.116,3.224-3.116,0Z" transform="translate(-227.841 162.966)" fill="none" stroke="#464646" stroke-linecap="round" stroke-linejoin="round" stroke-width="1.2"/>
      <path id="path328" d="M252.235-149.434l.011-6.04h-5.174" transform="translate(-227.826 160.937)" fill="none" stroke="#464646" stroke-linecap="round" stroke-linejoin="round" stroke-width="1.2"/>
      <path id="path330" d="M249.813-124.913v-1.742" transform="translate(-229.041 148.158)" fill="none" stroke="#464646" stroke-linecap="round" stroke-linejoin="round" stroke-width="1.2"/>
      <path id="path332" d="M218.758-156.889h4.6" transform="translate(-215.27 161.565)" fill="none" stroke="#464646" stroke-linecap="round" stroke-linejoin="round" stroke-width="1.2"/>
      <path id="path334" d="M218.758-149.07h9.2" transform="translate(-215.27 158.098)" fill="none" stroke="#464646" stroke-linecap="round" stroke-linejoin="round" stroke-width="1.2"/>
      <path id="path336" d="M218.758-144.506h9.2" transform="translate(-215.27 156.074)" fill="none" stroke="#464646" stroke-linecap="round" stroke-linejoin="round" stroke-width="1.2"/>
      <path id="path338" d="M218.758-139.942h9.2" transform="translate(-215.27 154.05)" fill="none" stroke="#464646" stroke-linecap="round" stroke-linejoin="round" stroke-width="1.2"/>
      <path id="path340" d="M218.758-135.378h4.6" transform="translate(-215.27 152.026)" fill="none" stroke="#464646" stroke-linecap="round" stroke-linejoin="round" stroke-width="1.2"/>
    </g>
  </g>
</svg>
