<svg id="Group_34" data-name="Group 34" xmlns="http://www.w3.org/2000/svg" xmlns:xlink="http://www.w3.org/1999/xlink" width="68.541" height="63.802" viewBox="0 0 68.541 63.802">
  <defs>
    <clipPath id="clip-path">
      <path id="Clip_2" data-name="Clip 2" d="M0,0H8.819V16.055H0Z" fill="#a8a9a9" stroke="#a8a9a9" stroke-width="1"/>
    </clipPath>
    <clipPath id="clip-path-2">
      <path id="Clip_5" data-name="Clip 5" d="M0,0H1.519V1.5H0Z" fill="#a8a9a9" stroke="#a8a9a9" stroke-width="1"/>
    </clipPath>
    <clipPath id="clip-path-3">
      <path id="Clip_28" data-name="Clip 28" d="M0,0H1.52V5.84H0Z" fill="#a8a9a9" stroke="#a8a9a9" stroke-width="1"/>
    </clipPath>
  </defs>
  <g id="Group_3" data-name="Group 3" transform="translate(0 47.747)">
    <path id="Clip_2-2" data-name="Clip 2" d="M0,0H8.819V16.055H0Z" fill="none"/>
    <g id="Group_3-2" data-name="Group 3" clip-path="url(#clip-path)">
      <path id="Fill_1" data-name="Fill 1" d="M.76,0c.314.846.534,1.693.76,2.54l-.008,2.54v2.54a8.116,8.116,0,0,0,.349,2.27,7.348,7.348,0,0,0,2.657,3.669,7.213,7.213,0,0,0,2.039,1.047A10.638,10.638,0,0,0,8.819,15.72a7.023,7.023,0,0,1-2.729.316,8.709,8.709,0,0,1-2.46-1.265,8.815,8.815,0,0,1-3.2-4.422A9.643,9.643,0,0,1,.008,7.619V5.079L0,2.54C.226,1.693.447.846.76,0" transform="translate(0)" fill="#a8a9a9" stroke="#a8a9a9" stroke-width="1"/>
    </g>
  </g>
  <g id="Group_6" data-name="Group 6" transform="translate(0 42.174)">
    <path id="Clip_5-2" data-name="Clip 5" d="M0,0H1.519V1.5H0Z" fill="none"/>
    <g id="Group_6-2" data-name="Group 6" clip-path="url(#clip-path-2)">
      <path id="Fill_4" data-name="Fill 4" d="M.76.316l.76.069c-.015.024,0,.047-.008.071V.8L.76.87.008.8V.456C0,.432.015.409,0,.385Z" transform="translate(0 0.159)" fill="#a8a9a9" stroke="#a8a9a9" stroke-width="1"/>
    </g>
  </g>
  <g id="Group_9" data-name="Group 9" transform="translate(66.124 37.665)">
    <path id="Clip_8" data-name="Clip 8" d="M0,0H1.521V1.5H0Z" fill="none"/>
    <g id="Group_164268" data-name="Group 164268" transform="translate(0 0.475)">
      <path id="Fill_7" data-name="Fill 7" d="M.76.316l.761.069C1.5.409,1.515.432,1.512.456V.8L.76.87.008.8V.456C0,.432.017.409,0,.385Z" transform="translate(0 -0.316)" fill="#a8a9a9" stroke="#a8a9a9" stroke-width="1"/>
    </g>
  </g>
  <g id="Group_12" data-name="Group 12" transform="translate(66.124 22.338)">
    <path id="Clip_11" data-name="Clip 11" d="M0,0H1.521V11.878H0Z" fill="none"/>
    <g id="Group_164267" data-name="Group 164267">
      <path id="Fill_10" data-name="Fill 10" d="M.76,0a11.745,11.745,0,0,1,.761,1.483L1.512,2.97v7.422A13.933,13.933,0,0,1,.76,11.878a14.519,14.519,0,0,1-.752-1.486V2.97L0,1.483A11.933,11.933,0,0,1,.76,0" fill="#a8a9a9" stroke="#a8a9a9" stroke-width="1"/>
    </g>
  </g>
  <path id="Fill_17" data-name="Fill 17" d="M17.48,39.963q-4.809.235-9.62.4l-2.4.09-1.2.045a5.711,5.711,0,0,1-1.345-.045A3.611,3.611,0,0,1,.551,38.934a3.054,3.054,0,0,1-.49-1.3C.015,37.15.013,36.876,0,36.485L.007,19.052V11.425l0-.551a3.12,3.12,0,0,1,.088-.7A3.434,3.434,0,0,1,1.9,7.992a3.925,3.925,0,0,1,1.471-.411c.548-.032.853-.006,1.283-.011L9.466,7.6l4.8,0,2.389-.032,1.164-.047.259-.021.091-.012,0,0c.146-.056-.387.1-.458.388l.181-.459,1.616-4.1c.156-.372.218-.623.46-1.1a3.959,3.959,0,0,1,.89-1.08A4.779,4.779,0,0,1,23.477.016L33.175,0c.43,0,.736-.012,1.268.012a4.7,4.7,0,0,1,1.428.34,4.9,4.9,0,0,1,2.17,1.677A5.093,5.093,0,0,1,38.6,3.177L39,4.2l.805,2.054.4,1.026.2.513.051.129a.577.577,0,0,0-.191-.287A.7.7,0,0,0,40,7.506c.066,0,.09.017.193.021.717.056,1.537.06,2.324.069l4.792-.026.619,0a4.157,4.157,0,0,1,.77.081,3.888,3.888,0,0,1,1.4.581A3.28,3.28,0,0,1,51.58,10.6l.017,4.428V32.463l-.2,4.358-.027.548a3.169,3.169,0,0,1-.1.65,3.058,3.058,0,0,1-.636,1.158,3.5,3.5,0,0,1-2.406,1.161c-3.3-.078-6.437-.235-9.665-.376l9.573-.406a2.449,2.449,0,0,0,1.639-.952,1.93,1.93,0,0,0,.385-1.243l-.025-.54-.2-4.358V15.031l-.01-4.291a1.8,1.8,0,0,0-.819-1.3,2.13,2.13,0,0,0-.77-.322,2.615,2.615,0,0,0-.422-.045l-.584,0L42.5,9.1c-.815-.011-1.6-.011-2.481-.077-.1,0-.272-.035-.4-.056a1.079,1.079,0,0,1-.41-.179,1.024,1.024,0,0,1-.31-.36L38.85,8.3l-.2-.513-.4-1.026-.807-2.054a14.223,14.223,0,0,0-.8-1.873A3.3,3.3,0,0,0,35.2,1.727a2.925,2.925,0,0,0-.883-.214c-.269-.015-.765,0-1.137-.008l-9.54.008A3.061,3.061,0,0,0,22,2.234a3.192,3.192,0,0,0-.931,1.592L19.451,7.933l-.226.563a.988.988,0,0,1-.593.445l-.149.032L18.275,9l-.34.029-1.237.05-2.421.033-4.82,0L4.646,9.075c-.37,0-.87-.015-1.121,0a2.122,2.122,0,0,0-.81.226,1.9,1.9,0,0,0-1,1.2,1.724,1.724,0,0,0-.05.381l0,.537v7.628l0,17.432-.033,1.026a1.719,1.719,0,0,0,.209.772,2.178,2.178,0,0,0,1.358,1.041,4.4,4.4,0,0,0,1.048.1l1.2.045,2.4.09q4.812.169,9.62.4" transform="translate(7.968 14.982)" fill="#a8a9a9" stroke="#a8a9a9" stroke-width="1.4"/>
  <path id="Fill_19" data-name="Fill 19" d="M0,.76A6.825,6.825,0,0,1,.88,0c.293.015.587,0,.88.008h4.4a8.441,8.441,0,0,1,.88.752,8.092,8.092,0,0,1-.88.752H1.76c-.293,0-.587-.008-.88.008A6.6,6.6,0,0,1,0,.76" transform="translate(33.524 17.527)" fill="#a8a9a9" stroke="#a8a9a9" stroke-width="1"/>
  <path id="Fill_21" data-name="Fill 21" d="M15.43,30.86A15.43,15.43,0,1,1,30.861,15.43,15.43,15.43,0,0,1,15.43,30.86" transform="translate(20.483 27.332)" fill="#fff"/>
  <path id="Fill_23" data-name="Fill 23" d="M16.692,31.6v0a12.842,12.842,0,0,0,5.291-1.421,16.072,16.072,0,0,0,4.579-3.618A14.679,14.679,0,0,0,16.226,1.5h-.089A14.671,14.671,0,0,0,5.809,26.556a16.3,16.3,0,0,0,4.579,3.614,12.858,12.858,0,0,0,5.1,1.425A16.765,16.765,0,0,1,4.736,27.63,16.187,16.187,0,0,1,16.133,0h.1A16.182,16.182,0,0,1,27.625,27.625,16.933,16.933,0,0,1,16.692,31.6Z" transform="translate(19.744 26.58)" fill="#a8a9a9" stroke="#a8a9a9" stroke-width="1.4"/>
  <path id="Fill_25" data-name="Fill 25" d="M0,5.028H5.035a2.9,2.9,0,0,0-1.322-2.35A11.551,11.551,0,0,0,.769,2.011H0V0H10.054V2.011H8a1.141,1.141,0,0,0-1.05,1.518c.054.132.1.271.146.411.134.456.573.754,1.049,1.088h1.908v1H7.819a1.115,1.115,0,0,0-1.076.844,4.139,4.139,0,0,1-2.965,3,1.068,1.068,0,0,0-.584,1.61L7.066,18.1H5.248a1.119,1.119,0,0,1-.976-.576L0,9.8V9.049H.769A7.454,7.454,0,0,0,3.9,8.327,2.66,2.66,0,0,0,5.058,6.033H0Z" transform="translate(31.595 34.76)" fill="#f93753"/>
  <g id="Group_29" data-name="Group 29" transform="translate(36.746 0)">
    <path id="Clip_28-2" data-name="Clip 28" d="M0,0H1.52V5.84H0Z" fill="none"/>
    <g id="Group_29-2" data-name="Group 29" clip-path="url(#clip-path-3)">
      <path id="Fill_27" data-name="Fill 27" d="M.758,0A6.033,6.033,0,0,1,1.52.73c-.015.242,0,.487-.009.731V5.109a6.856,6.856,0,0,1-.752.731,7.135,7.135,0,0,1-.752-.731V1.461C0,1.217.015.972,0,.73A6,6,0,0,1,.758,0" transform="translate(0 0)" fill="#a8a9a9" stroke="#a8a9a9" stroke-width="1"/>
    </g>
  </g>
  <path id="Fill_30" data-name="Fill 30" d="M.1.065A5.776,5.776,0,0,1,1.091,0c.14.165.295.313.442.471l.9.927.9.928.448.463a6.637,6.637,0,0,1-.092.987,7.034,7.034,0,0,1-.988.059l-.45-.465-.9-.927-.9-.928C.3,1.363.158,1.2,0,1.056A5.529,5.529,0,0,1,.1.065" transform="translate(25.763 2.33)" fill="#a8a9a9" stroke="#a8a9a9" stroke-width="1"/>
  <path id="Fill_32" data-name="Fill 32" d="M.1,3.77A5.682,5.682,0,0,1,0,2.779c.159-.144.3-.307.453-.459l.9-.928.9-.927L2.7,0a7.034,7.034,0,0,1,.988.059,6.636,6.636,0,0,1,.092.987l-.448.463-.9.928-.9.927c-.147.158-.3.305-.442.469A5.61,5.61,0,0,1,.1,3.77" transform="translate(45.487 2.336)" fill="#a8a9a9" stroke="#a8a9a9" stroke-width="1"/>
</svg>
